# xmcd
#
# Track frame offsets:
#	150
#	17605
#	37315
#	55734
#	73965
#	90068
#	109004
#	126285
#	143344
#	160307
#	179229
#	192779
#
# Disc length: 2762 seconds
#
# Revision: 1
# Processed by: cddbd v1.5.1PL0 Copyright (c) Steve Scherf et al.
# Submitted via: audiograbber 1.83.01
#
DISCID=a30ac80c
DTITLE=Terri Clark - Honky Tonk Songs
DYEAR=2005
DGENRE=Country
TTITLE0=Honky Tonk Song
TTITLE1=I Wish He'd Been Drinkin Whisk
TTITLE2=Damn Right (I'm Gonna Miss You
TTITLE3=The World Needs A Drink
TTITLE4=Cowboy Days
TTITLE5=Travelin Soul
TTITLE6=Bigger Windows
TTITLE7=Everybody's Gotta Go Sometime
TTITLE8=You Gotta Love That
TTITLE9=Slow News Day
TTITLE10=Tear It All Down
TTITLE11=Last Good Time
EXTD=
EXTT0=
EXTT1=
EXTT2=
EXTT3=
EXTT4=
EXTT5=
EXTT6=
EXTT7=
EXTT8=
EXTT9=
EXTT10=
EXTT11=
PLAYORDER=
